<?xml version="1.0" encoding="utf-8"?>
<!-- Generator: Adobe Illustrator 18.1.0, SVG Export Plug-In . SVG Version: 6.00 Build 0)  -->
<svg version="1.1" id="Layer_3" xmlns="http://www.w3.org/2000/svg" xmlns:xlink="http://www.w3.org/1999/xlink" x="0px" y="0px"
	 viewBox="0 0 612 792" style="enable-background:new 0 0 612 792;" xml:space="preserve">
<style type="text/css">
	.st0{fill:#69CCD9;stroke:#000000;stroke-width:4;stroke-miterlimit:10;}
	.st1{fill:#8FDAA2;}
	.st2{fill:#0A0805;}
	.st3{fill:#090B09;}
	.st4{fill:#528332;}
	.st5{fill:#99CC3A;}
	.st6{fill:none;}
	.st7{fill:#140A07;}
	.st8{fill:#97E2C1;}
	.st9{fill:#519581;}
	.st10{fill:#3B2730;}
	.st11{fill:#101610;}
	.st12{fill:#080507;}
	.st13{fill:#050A09;}
	.st14{fill:#87D7B1;}
	.st15{fill:#141B14;}
	.st16{fill:#5EA190;}
	.st17{fill:#0B0D0A;}
	.st18{fill:#65B993;}
	.st19{fill:#A1E169;}
	.st20{fill:#578D95;}
	.st21{fill:#76AEB2;}
	.st22{fill:#64BBC3;}
	.st23{fill:#12220A;}
	.st24{fill:#FDC91D;}
	.st25{opacity:0.2;fill:#7A5C20;}
	.st26{fill:#B28430;}
	.st27{opacity:0.7;fill:#7A5C20;}
	.st28{opacity:0.5;fill:#D3A61D;}
	.st29{opacity:0.5;fill:#B28430;}
	.st30{opacity:0.5;fill:#E6DCE4;}
	.st31{fill:#0D0D0D;}
	.st32{fill:#030000;}
	.st33{fill:#464140;}
	.st34{fill:none;stroke:#000000;stroke-miterlimit:10;}
</style>
<g>
	<g>
		<path id="upper_left_wing" class="st0" d="M309.8,401.5c0,0-19,28.4-11,32.2c8,3.8-59,0-59,0s-52-16.2-76-32.2s-48-53-59-71
			s-23-51-27-56s-13-37.3-13-37.3l1.2-28.6c0,0-3.2-15.1,29.8-14.1s38,9,51,17s67,50,67,54s39,43.7,45,51.3
			C264.8,324.5,309.8,401.5,309.8,401.5z"/>
		<path class="st1" d="M293.8,409l-17.7-44.7c0,0-20-41.4-22.1-39.5c-2,1.9-4.3-13.3-26.8-35s-16.7-18.2-36.6-37.9
			s-16.1-22.8-38-35.9c-21.9-13.1-37-17.1-51.4-17c-14.5,0.2-13.1-1.8-27.7,3.2s1.9,20.2,1.9,20.2l8.8,0.5L293.8,409z"/>
		<path class="st2" d="M291,423c0,0-15.8,2.7-22.3,0s-23.1-10.7-22.4-12.7c0.7-2-32-1.3-34.7-7.6c-2.7-6.4-22-1.6-44-15.7
			c-22-14-38-32.7-40.7-40c-2.7-7.3-7.3-9.6-4-14.5c3.3-4.9,16.7,9.1,18.7,8.5S291,423,291,423z"/>
		<path class="st3" d="M64,232.7c0,0,30-6,46.7,4.7c16.7,10.7,25.2,18.7,25.2,18.7s34.8,16,47.4,23.3s34.7,20.7,46,29.3
			c11.3,8.7,32.1,44.7,38.7,61c6.6,16.3,27.3,42.3,27.3,42.3s-32.7-16-34.7-16.7s-50.7-19.9-51.3-25.6c-0.7-5.7-37.3-26.6-50.7-38.8
			c-13.3-12.2-0.7,2.1-37.3-9.4C84.7,310.1,63.4,237.4,64,232.7z"/>
		<path class="st4" d="M65.2,214.3c0,0,19.3-1.6,24,0c4.7,1.6,10.7,1.1,34,10s56.7,28.9,43.3,22.9c-13.3-6,31.9,20,41.6,30
			s-46.3-16.7-46.3-16.7l-47.3-32c0,0-46-13.8-46-4.3S65.2,214.3,65.2,214.3z"/>
		<path class="st5" d="M183.9,259.6c-0.7-1.8-37.1-24.5-47-28.5s-31.2-15-37.2-15.8s-28.7,0-28.7,0s-6,5.3-4-6.4
			c2-11.7,17.3-7.7,17.3-7.7s30.7,4.2,33.3,7.7c2.7,3.6,13.8,4.3,33.2,16.3S183.9,259.6,183.9,259.6z"/>
		<line class="st6" x1="220.8" y1="377.9" x2="295.4" y2="412.1"/>
	</g>
	<g>
		<path id="lower_left_wing" class="st7" d="M303,463.7c2,2-13,53-23,67s-22,36-35,34s-12,13-19,22s-11,20-23,28s-25,12-54,0
			s-16-89-15-99.5c1-10.5,29-48.5,39-57.5s57.9-28.9,55-33.1c-2.9-4.3,64-1.7,64-1.7L303,463.7z"/>
		<path class="st8" d="M278.7,441.7c-3.1,2.9-43.6-5.8-46.9-5.6c-3.3,0.2-46.7,14.8-60.7,39.5s-22.7,33.3-25.3,50
			c-2.7,16.7-3.6,42.7-3.6,42.7s0.9,24.8,7.6,36.1c6.7,11.3,13.3,17,24,12c10.7-5,26.1,5.2,36.4-11.1c10.3-16.3,22.3-39.7,22.3-39.7
			s6-8,10.7-10.7c4.7-2.7,42.3-97.3,42.3-97.3L278.7,441.7z"/>
		<path class="st9" d="M154.8,501.1c0,0,9.6-4.7,23.1-11.3c31.9-15.6,86.1-42.1,90.1-44c5.7-2.7,12.1,2,9.9,4
			C275.7,451.7,154.8,501.1,154.8,501.1z"/>
		<path class="st10" d="M280.5,444.9c0,0-1.2,0.5-3.4,1.5c-13.2,5.7-60.4,26-62.1,26.9c-2,1-26.7,38.3-26.7,38.3s-3.3,28-5.3,27.3
			c-2-0.7,9.3-0.7,9.3-2.7s0.7-22,0.7-22l25.3-34.7l60.9-34.1"/>
		<path class="st11" d="M280.5,451.3c0,0-63.9,46.3-65.7,48c-2,2-26.8,28.7-25.1,31.3c1.7,2.7-21.6,2.7-23.6,13.3
			c-2,10.7-5.3,42.7-4,40.7c1.3-2,3.3-3.3,8-4c4.7-0.7,17.3,3.3,12.7,10.7s4.8-11.3,10.4-12s23.6-3.3,21.6,0.7s-2-8,6.3-10
			S280.5,451.3,280.5,451.3z"/>
		<line class="st6" x1="156.2" y1="613.3" x2="157.4" y2="610.2"/>
		<line class="st6" x1="161.9" y1="600.1" x2="161.9" y2="600.8"/>
		<polygon class="st12" points="143.3,605.5 154.8,588.2 149,610.2 		"/>
		<polygon class="st12" points="184.6,621.1 182.8,604.1 191,619.1 		"/>
	</g>
	<g>
		<path id="lower_right_wing" class="st13" d="M320.2,469.7c0,0,10,44,14,53s23,31,23,31s11,13,14,15s5,1,8,0s21,19,25,29
			s6,12,15,16s18,8,26,8s22-4,32-17s11-25,11-25v-44c0,0-5-38-24-59s-43-33-43-33s-31.1-18.4-32-18c-0.9,0.3-58-3-58-3L320.2,469.7z
			"/>
		<path class="st14" d="M336.9,429.4c0,0,44.4,5,50.8-1.1c6.3-6.1,53.1,39.6,59.3,48.9c6.2,9.3,16.2,19.3,20.2,39.3s9.3,16.7,8,36
			s14.7,34.7,3.3,47.3c-11.3,12.7-29.2,16.7-31.6,16.7c-2.4,0-24-2.7-30.2-9.7c-6.2-7-30.1-39.5-27.2-46.2c2.9-6.7,4.6,11.2-7.6,3.2
			c-10.8-7.1-43.3-76.9-50.2-91.9c-0.7-1.5,0.1-3.2,1.7-3.6l0,0L336.9,429.4z"/>
		<polygon class="st15" points="456.1,582.3 467.6,608.4 472.3,611.3 		"/>
		<polygon class="st15" points="440.5,605.4 437.4,620.7 446.9,618 		"/>
		<path class="st16" d="M331.7,442.5c0,0,92,78.9,92,76.2c0-2.7,51.3,17.9,48.6,11.9s-10-49-18.6-51.1s-64.4-26.1-70.5-26.1
			S331.7,442.5,331.7,442.5z"/>
		<path class="st15" d="M331.7,448l80.7,54l10.7,13.2l9.3,2.8l13.9,14.7c0,0,8.3,39.3,4.5,39.3c-3.8,0-7.4-7.3-7.4-7.3
			s-7.7,15.4-9.7,15.7c-2,0.3-11.7-17.7-17.2-15c-5.5,2.7-14.8,12-12.8,15S385,523.7,385,523.7"/>
		<path class="st15" d="M334.3,440.6c2-2.7,27,1.6,29.8,4.4c2.8,2.9,39.5,14.9,39.5,14.9s26,34,26,36s9.3,26,13.7,32.7
			c4.3,6.7-7.7-5.3-7.7-5.3l-8.7-20.7c0,0-26.7-38.7-26.7-37.7S334.3,440.6,334.3,440.6z"/>
	</g>
	<g>
		<path id="upper_right_wing" class="st17" d="M332.4,424.6c9,9,46,7,46,7l80-27c0,0,22-19,30-32s12-16,34-48c22-32,31-84,31-84v-26
			c0,0-4-20-32-16c-28,4-48,16-48,16s-63,52-66,55s-52,66-52,66l-34,62L332.4,424.6z"/>
		<path class="st18" d="M332.3,412.3c0,0,0.4-1.1,1.2-3c4-10.2,17-43.5,21.1-52.6c4.8-10.8,13.5-25.1,21.4-33.9
			c7.9-8.8,24-29.1,29.9-37.2c5.9-8.1,35.9-39.3,35.9-37.3c0,2,19.2-20.9,25.9-24.4c6.7-3.4,29.2-11.1,33.9-13.7
			c4.8-2.6,19.1-5.8,31.3-3.2c12.3,2.6,15.7,16.6,15,20.8s-0.5,8.9,0.1,15c0.6,6.1-9.6,19.7-9.6,19.7l-21.8-14.2c0,0-8.2-2-17,0.7
			c-8.8,2.7-53.1,31.9-66.7,45.5c-13.6,13.5-50.4,54.2-60.6,63C362,366.2,332.3,412.3,332.3,412.3z"/>
		<path class="st19" d="M449.4,254.6c0,0,32.3-32,39.3-33.5s7-9.4,25.1-14.1c18.2-4.8,30,9.3,30,9.3s0.7,11.6,0,8.9
			c-0.7-2.7-16.1-1.1-16.1-1.1h-9.3c0,0,28.1,13.1,25.7,11c-2.4-2.1-3.1,4.2-3.1,4.2s-12.4-3.5-20.2-4.2c-7.7-0.7-23.1,3.5-36.4,8.4
			S449.4,254.6,449.4,254.6z"/>
		<path class="st20" d="M332.7,412c-3.7-0.9,25.9-16.6,25.9-16.6s37.2-23.3,39.1-22.6c1.8,0.7,27.7-10.5,29.1-14
			c1.4-3.5,20.9-12.6,23-16.1c2.1-3.5,16.9-19,21.7-17.5c4.8,1.5,16.7-5.5,25.8-5.5c9.1,0-23.1,19.6-23.1,19.6s-27.2,20.9-32.1,18.9
			c-4.9-2.1-27.5,14-34,16.8C401.5,377.6,332.7,412,332.7,412z"/>
		<path class="st21" d="M325.6,424.2c0,0,19.5-9,21.6-7.3c2.1,1.7,12.7,12.8,12.7,12.8S344.5,432.6,325.6,424.2z"/>
		<path class="st22" d="M354.9,420.4l6.2,9.8c0,0,34.9-8.1,48.9-13.8s18.2-5.7,32.3-14c14.1-8.2,35.4-28.1,38.9-34
			c3.5-5.9,12.6-13.6,20.9-28.3c8.4-14.7,10.5-23,10.5-29.3s-9.1,7.7-9.1,7.7l-13.3,17.5l-11.2,14c0,0-4.6,7.7-12.1,13.3
			c-7.5,5.6-41.7,33.3-53.6,36.5C401.6,403,354.9,420.4,354.9,420.4z"/>
		<polygon class="st23" points="549.9,236.9 529.7,224.9 549.9,223.8 		"/>
	</g>
	<g>
		<path class="st24" d="M327.6,501.6c-1-9,0-47,0-47l-2.5-35.1c0,0-2.8-10.9-4.6-10.9s-15.3-5-15.3-5l-8.3,28v61.9
			c0.4,3.3,0.6,6.8,0,10v18.1c0,0,1.8,23,15.3,24c2.5,0.2,13.5-5,15.5-13S328.6,510.6,327.6,501.6z"/>
		<path class="st25" d="M295.5,482.3v45.4c0,0,16.7,23.9,18.7,19.7c1.9-4.1,9.8-1,13.1-15.5c3.3-14.6,0-42.3,0-42.3l-29-7.3"/>
		<path class="st26" d="M305.3,530.2c0,0-7.7-12.6-8.4-16.5c0,0-0.8,0.7-1.4,2.2c0.4,3.8,0.6,7.6,1,11.3c0.8,2.1,2,4.5,3.7,7.1
			c4.5,7.2,10.1,10.1,13.7,11.4c0.2,0,0.4,0.1,0.6,0.1c4.4-2.3,10.1-6.3,9.8-12.2C323.7,521.8,305.3,530.2,305.3,530.2z"/>
		<path class="st27" d="M304.4,509l-8.6-23.9c1.1,5.5,2.1,11.7,0.6,17.3l5.9,12.7C308.4,516.5,304.4,509,304.4,509z"/>
		<ellipse class="st28" cx="313.1" cy="528.6" rx="3.6" ry="2.4"/>
		<path class="st29" d="M296.8,450.5c0,0,13.1,0.5,13.8,0c0.7-0.5,0,1.7,0,1.7h-13.8V450.5z"/>
		<path class="st29" d="M296.8,486c0,0,13.1,0.5,13.8,0c0.7-0.5,0,1.7,0,1.7h-13.8V486z"/>
		<path class="st29" d="M313.1,450.5c0,0,13.1,0.5,13.8,0c0.7-0.5,0,1.7,0,1.7h-13.8V450.5z"/>
		<path class="st29" d="M313.1,484.2c0,0,13.1,0.5,13.8,0c0.7-0.5,0,1.7,0,1.7h-13.8V484.2z"/>
		<path class="st30" d="M308.8,505.3c-0.3-1,0-70.5,0-70.5s3.6-8,5.1,0c1.4,8,2.9,44,2.9,44l-2.9,25
			C313.9,503.8,311.8,514.3,308.8,505.3z"/>
	</g>
	<g>
		<path id="body_one" class="st31" d="M305.8,366.1c0,0,17.5-4,16.5,0s0.5-2.4,6,5c5.5,7.4,11,21,11,21l-11,47l-5.8,27l-5.2-21
			l-11.5,1v20l-8.5-26l-11-40.8C286.3,399.3,289.3,366.1,305.8,366.1z"/>
		<g>
			<path class="st32" d="M298.4,375.6c0.6-4.1,28.8,0,28.8,0s-7.8-30.6-11.9-33.9c-4.1-3.3-7.6-2.2-8.7,0
				C305.4,343.9,298.4,375.6,298.4,375.6z"/>
			<path class="st33" d="M322.5,352.6l-6.9-4.3c0,0,0.8-3.3,0-6.6c-0.8-3.3,3.4-2.8,6.9,2.2S322.5,352.6,322.5,352.6z"/>
			<path class="st33" d="M303,352.2l5.9-4.3c0,0-0.7-3.3,0-6.6c0.7-3.3-2.9-2.8-5.9,2.2C300,348.5,303,352.2,303,352.2z"/>
		</g>
	</g>
	<line class="st6" x1="115.7" y1="132.5" x2="144.7" y2="131.3"/>
	<line class="st6" x1="42" y1="400.7" x2="42" y2="402.7"/>
	<path class="st6" d="M317.8,341.8c5.2-21.1,21.3-37.6,36.6-53.1c15.3-15.5,31.1-32.4,35.4-53.7"/>
	<path class="st34" d="M312.3,341.9c-6.4-15.7-18.3-28.5-30.4-40.3s-25-23.3-34.2-37.5s-14.7-31.9-10.1-48.3"/>
	<path class="st34" d="M311.8,342.4c-1.3-7.3,1.6-14.8,4.9-21.4c7.9-16,18.8-30.4,31.9-42.5c20-18.4,45.2-31.4,60.9-53.5
		c3.4-4.8,6.3-10.9,4-16.3"/>
</g>
</svg>
