<?xml version="1.0" encoding="UTF-8" standalone="no"?>
<svg width="1440px" height="63px" viewBox="0 0 1440 63" version="1.1" xmlns="http://www.w3.org/2000/svg" xmlns:xlink="http://www.w3.org/1999/xlink" xmlns:sketch="http://www.bohemiancoding.com/sketch/ns">
    <!-- Generator: Sketch 3.2.2 (9983) - http://www.bohemiancoding.com/sketch -->
    <title>Group + Group 2 + Group 3 + Group + Group 2 + Group 4 + Group + Group 2 + Group 3 + Group + Group 2 + Group 5 + Triangle 9</title>
    <desc>Created with Sketch.</desc>
    <defs></defs>
    <g id="Welcome" stroke="none" stroke-width="1" fill="none" fill-rule="evenodd" sketch:type="MSPage">
        <g id="Desktop-HD" sketch:type="MSArtboardGroup" transform="translate(0.000000, -939.000000)">
            <g id="Group-+-Group-2-+-Group-3-+-Group-+-Group-2-+-Group-4-+-Group-+-Group-2-+-Group-3-+-Group-+-Group-2-+-Group-5-+-Triangle-9" sketch:type="MSLayerGroup" transform="translate(-22.000000, 940.000000)">
                <g id="Group-+-Group-2-+-Group-3-+-Group-+-Group-2-+-Group-4" transform="translate(22.000000, 20.000000)" sketch:type="MSShapeGroup">
                    <g id="Group-+-Group-2-+-Group-3">
                        <g id="Group">
                            <polygon id="Triangle-3" stroke="#0051A8" fill="#F8E81C" points="24 0 48 41 0 41 "></polygon>
                            <polygon id="Triangle-4" stroke="#88ACF8" fill="#950886" points="72 0 96 41 48 41 "></polygon>
                            <polygon id="Triangle-5" stroke="#950886" fill="#F8C8AB" points="120 0 144 41 96 41 "></polygon>
                            <polygon id="Triangle-6" stroke="#F8E81C" fill="#88ACF8" points="168 0 192 41 144 41 "></polygon>
                            <polygon id="Triangle-7" stroke="#F8C8AB" fill="#0051A8" points="216 0 240 41 192 41 "></polygon>
                        </g>
                        <g id="Group-2" transform="translate(240.000000, 0.000000)">
                            <polygon id="Triangle-3" stroke="#0051A8" fill="#F8E81C" points="24 0 48 41 0 41 "></polygon>
                            <polygon id="Triangle-4" stroke="#88ACF8" fill="#950886" points="72 0 96 41 48 41 "></polygon>
                            <polygon id="Triangle-5" stroke="#950886" fill="#F8C8AB" points="120 0 144 41 96 41 "></polygon>
                            <polygon id="Triangle-6" stroke="#F8E81C" fill="#88ACF8" points="168 0 192 41 144 41 "></polygon>
                            <polygon id="Triangle-7" stroke="#F8C8AB" fill="#0051A8" points="216 0 240 41 192 41 "></polygon>
                        </g>
                        <g id="Group-3" transform="translate(480.000000, 0.000000)">
                            <polygon id="Triangle-3" stroke="#0051A8" fill="#F8E81C" points="24 0 48 41 0 41 "></polygon>
                            <polygon id="Triangle-4" stroke="#88ACF8" fill="#950886" points="72 0 96 41 48 41 "></polygon>
                            <polygon id="Triangle-5" stroke="#950886" fill="#F8C8AB" points="120 0 144 41 96 41 "></polygon>
                            <polygon id="Triangle-6" stroke="#F8E81C" fill="#88ACF8" points="168 0 192 41 144 41 "></polygon>
                            <polygon id="Triangle-7" stroke="#F8C8AB" fill="#0051A8" points="216 0 240 41 192 41 "></polygon>
                        </g>
                    </g>
                    <g id="Group-+-Group-2-+-Group-4" transform="translate(720.000000, 0.000000)">
                        <g id="Group">
                            <polygon id="Triangle-3" stroke="#0051A8" fill="#F8E81C" points="24 0 48 41 0 41 "></polygon>
                            <polygon id="Triangle-4" stroke="#88ACF8" fill="#950886" points="72 0 96 41 48 41 "></polygon>
                            <polygon id="Triangle-5" stroke="#950886" fill="#F8C8AB" points="120 0 144 41 96 41 "></polygon>
                            <polygon id="Triangle-6" stroke="#F8E81C" fill="#88ACF8" points="168 0 192 41 144 41 "></polygon>
                            <polygon id="Triangle-7" stroke="#F8C8AB" fill="#0051A8" points="216 0 240 41 192 41 "></polygon>
                        </g>
                        <g id="Group-2" transform="translate(240.000000, 0.000000)">
                            <polygon id="Triangle-3" stroke="#0051A8" fill="#F8E81C" points="24 0 48 41 0 41 "></polygon>
                            <polygon id="Triangle-4" stroke="#88ACF8" fill="#950886" points="72 0 96 41 48 41 "></polygon>
                            <polygon id="Triangle-5" stroke="#950886" fill="#F8C8AB" points="120 0 144 41 96 41 "></polygon>
                            <polygon id="Triangle-6" stroke="#F8E81C" fill="#88ACF8" points="168 0 192 41 144 41 "></polygon>
                            <polygon id="Triangle-7" stroke="#F8C8AB" fill="#0051A8" points="216 0 240 41 192 41 "></polygon>
                        </g>
                        <g id="Group-3" transform="translate(480.000000, 0.000000)">
                            <polygon id="Triangle-3" stroke="#0051A8" fill="#F8E81C" points="24 0 48 41 0 41 "></polygon>
                            <polygon id="Triangle-4" stroke="#88ACF8" fill="#950886" points="72 0 96 41 48 41 "></polygon>
                            <polygon id="Triangle-5" stroke="#950886" fill="#F8C8AB" points="120 0 144 41 96 41 "></polygon>
                            <polygon id="Triangle-6" stroke="#F8E81C" fill="#88ACF8" points="168 0 192 41 144 41 "></polygon>
                            <polygon id="Triangle-7" stroke="#F8C8AB" fill="#0051A8" points="216 0 240 41 192 41 "></polygon>
                        </g>
                    </g>
                </g>
                <g id="Group-+-Group-2-+-Group-3-+-Group-+-Group-2-+-Group-5" transform="translate(720.000000, 20.500000) scale(1, -1) translate(-720.000000, -20.500000) " sketch:type="MSShapeGroup">
                    <g id="Group-+-Group-2-+-Group-3">
                        <g id="Group">
                            <polygon id="Triangle-3" stroke="#0051A8" fill="#F8E81C" points="24 0 48 41 0 41 "></polygon>
                            <polygon id="Triangle-8" stroke="#0051A8" fill="#F8E81C" points="24 0 48 41 0 41 "></polygon>
                            <polygon id="Triangle-4" stroke="#88ACF8" fill="#950886" points="72 0 96 41 48 41 "></polygon>
                            <polygon id="Triangle-5" stroke="#950886" fill="#F8C8AB" points="120 0 144 41 96 41 "></polygon>
                            <polygon id="Triangle-6" stroke="#F8E81C" fill="#88ACF8" points="168 0 192 41 144 41 "></polygon>
                            <polygon id="Triangle-7" stroke="#F8C8AB" fill="#0051A8" points="216 0 240 41 192 41 "></polygon>
                        </g>
                        <g id="Group-2" transform="translate(240.000000, 0.000000)">
                            <polygon id="Triangle-3" stroke="#0051A8" fill="#F8E81C" points="24 0 48 41 0 41 "></polygon>
                            <polygon id="Triangle-4" stroke="#88ACF8" fill="#950886" points="72 0 96 41 48 41 "></polygon>
                            <polygon id="Triangle-5" stroke="#950886" fill="#F8C8AB" points="120 0 144 41 96 41 "></polygon>
                            <polygon id="Triangle-6" stroke="#F8E81C" fill="#88ACF8" points="168 0 192 41 144 41 "></polygon>
                            <polygon id="Triangle-7" stroke="#F8C8AB" fill="#0051A8" points="216 0 240 41 192 41 "></polygon>
                        </g>
                        <g id="Group-3" transform="translate(480.000000, 0.000000)">
                            <polygon id="Triangle-3" stroke="#0051A8" fill="#F8E81C" points="24 0 48 41 0 41 "></polygon>
                            <polygon id="Triangle-4" stroke="#88ACF8" fill="#950886" points="72 0 96 41 48 41 "></polygon>
                            <polygon id="Triangle-5" stroke="#950886" fill="#F8C8AB" points="120 0 144 41 96 41 "></polygon>
                            <polygon id="Triangle-6" stroke="#F8E81C" fill="#88ACF8" points="168 0 192 41 144 41 "></polygon>
                            <polygon id="Triangle-7" stroke="#F8C8AB" fill="#0051A8" points="216 0 240 41 192 41 "></polygon>
                        </g>
                    </g>
                    <g id="Group-+-Group-2-+-Group-4" transform="translate(720.000000, 0.000000)">
                        <g id="Group">
                            <polygon id="Triangle-3" stroke="#0051A8" fill="#F8E81C" points="24 0 48 41 0 41 "></polygon>
                            <polygon id="Triangle-4" stroke="#88ACF8" fill="#950886" points="72 0 96 41 48 41 "></polygon>
                            <polygon id="Triangle-5" stroke="#950886" fill="#F8C8AB" points="120 0 144 41 96 41 "></polygon>
                            <polygon id="Triangle-6" stroke="#F8E81C" fill="#88ACF8" points="168 0 192 41 144 41 "></polygon>
                            <polygon id="Triangle-7" stroke="#F8C8AB" fill="#0051A8" points="216 0 240 41 192 41 "></polygon>
                        </g>
                        <g id="Group-2" transform="translate(240.000000, 0.000000)">
                            <polygon id="Triangle-3" stroke="#0051A8" fill="#F8E81C" points="24 0 48 41 0 41 "></polygon>
                            <polygon id="Triangle-4" stroke="#88ACF8" fill="#950886" points="72 0 96 41 48 41 "></polygon>
                            <polygon id="Triangle-5" stroke="#950886" fill="#F8C8AB" points="120 0 144 41 96 41 "></polygon>
                            <polygon id="Triangle-6" stroke="#F8E81C" fill="#88ACF8" points="168 0 192 41 144 41 "></polygon>
                            <polygon id="Triangle-7" stroke="#F8C8AB" fill="#0051A8" points="216 0 240 41 192 41 "></polygon>
                        </g>
                        <g id="Group-3" transform="translate(480.000000, 0.000000)">
                            <polygon id="Triangle-3" stroke="#0051A8" fill="#F8E81C" points="24 0 48 41 0 41 "></polygon>
                            <polygon id="Triangle-4" stroke="#88ACF8" fill="#950886" points="72 0 96 41 48 41 "></polygon>
                            <polygon id="Triangle-5" stroke="#950886" fill="#F8C8AB" points="120 0 144 41 96 41 "></polygon>
                            <polygon id="Triangle-6" stroke="#F8E81C" fill="#88ACF8" points="168 0 192 41 144 41 "></polygon>
                            <polygon id="Triangle-7" stroke="#F8C8AB" fill="#0051A8" points="216 0 240 41 192 41 "></polygon>
                        </g>
                    </g>
                </g>
                <polygon id="Triangle-9" stroke="#0051A8" fill="#F8E81C" sketch:type="MSShapeGroup" transform="translate(1462.000000, 20.500000) scale(1, -1) translate(-1462.000000, -20.500000) " points="1462 0 1486 41 1438 41 "></polygon>
            </g>
        </g>
    </g>
</svg>